<svg xmlns="http://www.w3.org/2000/svg" xmlns:xlink="http://www.w3.org/1999/xlink" width="1080" zoomAndPan="magnify" viewBox="0 0 810 530.249967" height="707" preserveAspectRatio="xMidYMid meet" version="1.0"><defs><clipPath id="3279e2a739"><path d="M 0.570312 0 L 809.425781 0 L 809.425781 529.5 L 0.570312 529.5 Z M 0.570312 0 " clip-rule="nonzero"/></clipPath><clipPath id="042e56629a"><path d="M 361.605469 183.125 L 667.695312 183.125 L 667.695312 479.230469 L 361.605469 479.230469 Z M 361.605469 183.125 " clip-rule="nonzero"/></clipPath><clipPath id="18cc067f0f"><path d="M 141.949219 111 L 186 111 L 186 123 L 141.949219 123 Z M 141.949219 111 " clip-rule="nonzero"/></clipPath><clipPath id="01b1f1a5cb"><path d="M 239 4.660156 L 251 4.660156 L 251 52 L 239 52 Z M 239 4.660156 " clip-rule="nonzero"/></clipPath><clipPath id="66474b306a"><path d="M 489.183594 514.164062 L 505.578125 514.164062 L 505.578125 525.171875 L 489.183594 525.171875 Z M 489.183594 514.164062 " clip-rule="nonzero"/></clipPath></defs><g clip-path="url(#3279e2a739)"><path fill="#ffffff" d="M 0.570312 0 L 809.429688 0 L 809.429688 536.992188 L 0.570312 536.992188 Z M 0.570312 0 " fill-opacity="1" fill-rule="nonzero"/><path fill="#ffffff" d="M 0.570312 0 L 809.429688 0 L 809.429688 529.5 L 0.570312 529.5 Z M 0.570312 0 " fill-opacity="1" fill-rule="nonzero"/><path fill="#ffffff" d="M 0.570312 0 L 809.429688 0 L 809.429688 529.5 L 0.570312 529.5 Z M 0.570312 0 " fill-opacity="1" fill-rule="nonzero"/></g><g clip-path="url(#042e56629a)"><path fill="#4d0686" d="M 654.757812 337.617188 C 650.511719 345.136719 644.730469 348.578125 641.003906 348.578125 C 640.269531 348.578125 639.574219 348.453125 638.929688 348.207031 L 599.597656 333.320312 C 594.949219 331.5625 592.898438 323.707031 594.730469 314.894531 Z M 433.480469 253.855469 C 429.230469 261.378906 423.449219 264.816406 419.722656 264.816406 C 418.992188 264.816406 418.292969 264.691406 417.648438 264.449219 L 378.320312 249.5625 C 373.667969 247.800781 371.621094 239.945312 373.453125 231.132812 Z M 581.597656 226.554688 C 620.847656 251.585938 647.515625 287.554688 655.285156 326.070312 L 597.246094 304.101562 C 599.511719 273.910156 593.976562 246.625 581.597656 226.554688 Z M 586.519531 300.039062 L 449.753906 248.269531 C 471.625 220.515625 499.40625 203.984375 524.292969 203.984375 C 530.859375 203.984375 537.210938 205.117188 543.175781 207.351562 L 543.332031 207.480469 L 543.511719 207.480469 C 558.429688 213.1875 570.304688 225.578125 577.867188 243.320312 C 584.703125 259.355469 587.6875 278.941406 586.519531 300.039062 Z M 502.105469 196.453125 C 491.578125 199.664062 481.101562 205.027344 470.898438 212.449219 C 459.339844 220.851562 448.617188 231.535156 439.027344 244.210938 L 380.988281 222.242188 C 404.96875 204.097656 437.34375 194.125 472.386719 194.125 C 482.214844 194.125 492.191406 194.910156 502.105469 196.453125 Z M 583.375 310.597656 C 579.378906 314.941406 572.71875 317.40625 564.832031 317.40625 C 560.070312 317.40625 555.035156 316.453125 550.285156 314.652344 L 508.777344 298.941406 L 508.601562 298.875 L 466.617188 282.984375 C 453.753906 278.117188 444.671875 267.777344 444.472656 258.019531 Z M 667.667969 334.023438 C 667.667969 333.980469 667.664062 333.941406 667.660156 333.90625 L 667.648438 333.804688 C 664.21875 305.773438 651.246094 278.132812 630.128906 253.863281 C 609.800781 230.5 582.914062 211.59375 552.320312 199.148438 L 555.058594 191.886719 C 556.128906 189.054688 554.699219 185.878906 551.871094 184.808594 C 550.496094 184.289062 549.007812 184.335938 547.671875 184.9375 C 546.335938 185.539062 545.3125 186.628906 544.796875 188.003906 L 542.054688 195.261719 C 519.152344 187.214844 495.71875 183.136719 472.386719 183.136719 C 430.808594 183.136719 393.246094 196.171875 366.617188 219.839844 C 366.59375 219.863281 366.574219 219.878906 366.554688 219.898438 L 366.515625 219.929688 C 366.503906 219.945312 366.488281 219.957031 366.476562 219.96875 C 366.339844 220.09375 366.203125 220.230469 366.078125 220.375 C 366.046875 220.410156 366.019531 220.441406 365.984375 220.480469 C 365.863281 220.625 365.75 220.777344 365.640625 220.941406 C 365.621094 220.964844 365.605469 220.988281 365.589844 221.011719 C 365.460938 221.207031 365.351562 221.398438 365.253906 221.601562 L 365.234375 221.640625 C 365.160156 221.796875 365.097656 221.9375 365.042969 222.078125 L 363.1875 227 C 363.105469 227.214844 363.035156 227.441406 362.980469 227.671875 C 359.417969 242.707031 364.128906 255.9375 374.4375 259.835938 L 413.769531 274.726562 C 415.65625 275.441406 417.660156 275.800781 419.726562 275.800781 C 425.195312 275.800781 430.835938 273.269531 435.761719 268.640625 C 437.765625 273.566406 441.0625 278.296875 445.363281 282.417969 C 450.191406 287.035156 456.199219 290.785156 462.738281 293.261719 L 499.761719 307.277344 L 437.714844 471.621094 C 436.644531 474.457031 438.078125 477.628906 440.90625 478.703125 C 441.53125 478.941406 442.183594 479.058594 442.847656 479.058594 C 445.113281 479.058594 447.179688 477.628906 447.980469 475.507812 L 510.027344 311.164062 L 546.40625 324.929688 C 552.46875 327.226562 558.667969 328.390625 564.832031 328.390625 C 571.597656 328.390625 577.914062 326.957031 583.214844 324.226562 C 584.023438 333.734375 588.625 340.914062 595.71875 343.597656 L 635.046875 358.484375 C 636.9375 359.199219 638.941406 359.566406 641.003906 359.566406 C 651.359375 359.566406 661.867188 350.5 667.160156 336.992188 L 667.347656 336.5 C 667.386719 336.398438 667.414062 336.300781 667.445312 336.203125 L 667.46875 336.128906 C 667.484375 336.082031 667.5 336.035156 667.511719 335.984375 L 667.515625 335.980469 C 667.566406 335.785156 667.605469 335.585938 667.640625 335.363281 C 667.648438 335.320312 667.652344 335.273438 667.65625 335.230469 L 667.65625 335.203125 C 667.675781 335.042969 667.6875 334.875 667.691406 334.710938 C 667.695312 334.648438 667.699219 334.585938 667.695312 334.527344 C 667.695312 334.359375 667.683594 334.1875 667.667969 334.023438 " fill-opacity="1" fill-rule="nonzero"/></g><path fill="#4d0686" d="M 207.738281 63.808594 C 208.71875 65.5 210.539062 66.554688 212.496094 66.554688 C 213.453125 66.554688 214.402344 66.300781 215.234375 65.820312 C 217.855469 64.304688 218.753906 60.9375 217.242188 58.3125 L 200.875 29.925781 C 199.363281 27.304688 196 26.402344 193.378906 27.917969 C 190.761719 29.429688 189.859375 32.796875 191.371094 35.421875 L 207.738281 63.808594 " fill-opacity="1" fill-rule="nonzero"/><path fill="#4d0686" d="M 288.71875 204.246094 C 289.695312 205.941406 291.515625 206.992188 293.472656 206.992188 C 294.429688 206.992188 295.378906 206.738281 296.210938 206.257812 C 298.832031 204.742188 299.734375 201.375 298.21875 198.753906 L 281.851562 170.363281 C 281.121094 169.09375 279.9375 168.183594 278.519531 167.804688 C 277.105469 167.425781 275.625 167.621094 274.355469 168.355469 C 271.738281 169.867188 270.835938 173.234375 272.351562 175.859375 L 288.71875 204.246094 " fill-opacity="1" fill-rule="nonzero"/><path fill="#4d0686" d="M 306.1875 87.09375 C 307.144531 87.09375 308.089844 86.839844 308.925781 86.355469 L 340.027344 68.375 C 342.648438 66.863281 343.546875 63.496094 342.035156 60.871094 C 340.523438 58.25 337.160156 57.347656 334.539062 58.859375 L 303.4375 76.839844 C 300.820312 78.359375 299.917969 81.722656 301.429688 84.347656 C 302.40625 86.039062 304.230469 87.09375 306.1875 87.09375 " fill-opacity="1" fill-rule="nonzero"/><path fill="#4d0686" d="M 152.3125 176.046875 C 153.269531 176.046875 154.21875 175.792969 155.050781 175.3125 L 186.152344 157.332031 C 188.773438 155.816406 189.675781 152.449219 188.164062 149.828125 C 186.648438 147.203125 183.285156 146.300781 180.667969 147.816406 L 149.566406 165.796875 C 146.945312 167.308594 146.042969 170.675781 147.554688 173.300781 C 148.535156 174.996094 150.355469 176.046875 152.3125 176.046875 " fill-opacity="1" fill-rule="nonzero"/><path fill="#4d0686" d="M 282.785156 117.085938 C 282.785156 138.0625 265.742188 155.125 244.796875 155.125 C 223.851562 155.125 206.808594 138.0625 206.808594 117.085938 C 206.808594 96.113281 223.851562 79.050781 244.796875 79.050781 C 265.742188 79.050781 282.785156 96.113281 282.785156 117.085938 Z M 293.757812 117.085938 C 293.757812 90.054688 271.792969 68.0625 244.796875 68.0625 C 217.800781 68.0625 195.835938 90.054688 195.835938 117.085938 C 195.835938 144.121094 217.800781 166.113281 244.796875 166.113281 C 271.792969 166.113281 293.757812 144.121094 293.757812 117.085938 " fill-opacity="1" fill-rule="nonzero"/><path fill="#4d0686" d="M 193.378906 206.257812 L 193.382812 206.257812 C 194.214844 206.738281 195.164062 206.996094 196.121094 206.996094 C 198.074219 206.996094 199.898438 205.941406 200.875 204.246094 L 217.242188 175.859375 C 218.753906 173.234375 217.855469 169.871094 215.234375 168.355469 C 212.617188 166.839844 209.253906 167.742188 207.738281 170.363281 L 191.371094 198.753906 C 189.859375 201.375 190.761719 204.742188 193.378906 206.257812 " fill-opacity="1" fill-rule="nonzero"/><path fill="#4d0686" d="M 274.355469 65.820312 C 275.191406 66.300781 276.136719 66.554688 277.097656 66.554688 C 279.054688 66.554688 280.875 65.503906 281.851562 63.808594 L 298.21875 35.421875 C 299.734375 32.796875 298.832031 29.429688 296.210938 27.917969 C 293.59375 26.402344 290.230469 27.304688 288.71875 29.929688 L 272.347656 58.3125 C 270.835938 60.9375 271.738281 64.304688 274.355469 65.820312 " fill-opacity="1" fill-rule="nonzero"/><path fill="#4d0686" d="M 149.566406 68.378906 L 180.667969 86.359375 C 181.503906 86.839844 182.449219 87.09375 183.40625 87.09375 C 185.363281 87.09375 187.183594 86.039062 188.164062 84.347656 C 189.675781 81.726562 188.773438 78.359375 186.152344 76.839844 L 155.050781 58.863281 C 152.429688 57.351562 149.070312 58.25 147.558594 60.871094 C 146.042969 63.496094 146.945312 66.863281 149.566406 68.378906 " fill-opacity="1" fill-rule="nonzero"/><path fill="#4d0686" d="M 340.027344 165.796875 L 308.925781 147.816406 C 306.304688 146.300781 302.945312 147.203125 301.429688 149.828125 C 299.917969 152.449219 300.820312 155.816406 303.441406 157.332031 L 334.542969 175.3125 C 335.375 175.796875 336.320312 176.050781 337.28125 176.050781 C 339.238281 176.050781 341.058594 174.996094 342.035156 173.300781 C 343.546875 170.679688 342.648438 167.3125 340.027344 165.796875 " fill-opacity="1" fill-rule="nonzero"/><g clip-path="url(#18cc067f0f)"><path fill="#4d0686" d="M 180.1875 122.578125 C 183.210938 122.578125 185.671875 120.117188 185.671875 117.085938 C 185.671875 114.054688 183.210938 111.59375 180.1875 111.59375 L 147.453125 111.59375 C 144.425781 111.59375 141.964844 114.054688 141.964844 117.085938 C 141.964844 120.117188 144.425781 122.578125 147.453125 122.578125 L 180.1875 122.578125 " fill-opacity="1" fill-rule="nonzero"/></g><path fill="#4d0686" d="M 309.40625 111.59375 C 306.382812 111.59375 303.917969 114.054688 303.917969 117.085938 C 303.917969 120.117188 306.382812 122.578125 309.40625 122.578125 L 342.140625 122.578125 C 345.167969 122.578125 347.628906 120.117188 347.628906 117.085938 C 347.628906 114.054688 345.167969 111.59375 342.140625 111.59375 L 309.40625 111.59375 " fill-opacity="1" fill-rule="nonzero"/><g clip-path="url(#01b1f1a5cb)"><path fill="#4d0686" d="M 244.796875 51.605469 C 247.820312 51.605469 250.28125 49.140625 250.28125 46.113281 L 250.28125 10.152344 C 250.28125 7.125 247.820312 4.660156 244.796875 4.660156 C 241.769531 4.660156 239.308594 7.125 239.308594 10.152344 L 239.308594 46.113281 C 239.308594 49.140625 241.769531 51.605469 244.796875 51.605469 " fill-opacity="1" fill-rule="nonzero"/></g><path fill="#4d0686" d="M 239.308594 188.058594 L 239.308594 224.019531 C 239.308594 227.050781 241.769531 229.515625 244.796875 229.515625 C 247.820312 229.515625 250.28125 227.050781 250.28125 224.019531 L 250.28125 188.058594 C 250.28125 185.03125 247.820312 182.566406 244.796875 182.566406 C 241.769531 182.566406 239.308594 185.03125 239.308594 188.058594 " fill-opacity="1" fill-rule="nonzero"/><path fill="#4d0686" d="M 633.785156 502.621094 C 578.269531 500.414062 522.917969 477.070312 476.09375 454.523438 C 473.371094 453.210938 470.082031 454.363281 468.773438 457.09375 C 468.136719 458.417969 468.054688 459.90625 468.539062 461.292969 C 469.023438 462.675781 470.019531 463.789062 471.339844 464.425781 C 519.175781 487.460938 575.832031 511.3125 633.351562 513.597656 C 633.425781 513.601562 633.5 513.605469 633.570312 513.605469 C 636.527344 513.605469 638.933594 511.289062 639.050781 508.328125 C 639.167969 505.304688 636.808594 502.742188 633.785156 502.621094 " fill-opacity="1" fill-rule="nonzero"/><path fill="#4d0686" d="M 435.199219 434.273438 C 388.96875 411.101562 341.164062 387.140625 298.898438 383.351562 C 250.011719 378.964844 212.019531 392.21875 188.753906 404.109375 C 163.4375 417.050781 149.804688 430.96875 149.238281 431.554688 C 147.132812 433.726562 147.1875 437.210938 149.351562 439.320312 C 151.519531 441.425781 154.996094 441.378906 157.109375 439.210938 C 157.238281 439.078125 170.332031 425.800781 194.078125 413.722656 C 215.996094 402.578125 251.804688 390.160156 297.917969 394.292969 C 338.113281 397.902344 384.96875 421.382812 430.285156 444.09375 C 431.058594 444.484375 431.882812 444.679688 432.738281 444.679688 C 434.828125 444.679688 436.710938 443.515625 437.648438 441.640625 C 439.003906 438.933594 437.902344 435.625 435.199219 434.273438 " fill-opacity="1" fill-rule="nonzero"/><path fill="#4d0686" d="M 282.5 442.546875 L 263.515625 442.546875 C 260.492188 442.546875 258.03125 445.011719 258.03125 448.042969 C 258.03125 451.070312 260.492188 453.535156 263.515625 453.535156 L 282.5 453.535156 C 285.527344 453.535156 287.988281 451.070312 287.988281 448.042969 C 287.988281 445.011719 285.527344 442.546875 282.5 442.546875 " fill-opacity="1" fill-rule="nonzero"/><path fill="#4d0686" d="M 355.382812 481.128906 L 343.222656 481.128906 C 340.195312 481.128906 337.734375 483.59375 337.734375 486.625 C 337.734375 489.652344 340.195312 492.117188 343.222656 492.117188 L 355.382812 492.117188 C 358.410156 492.117188 360.871094 489.652344 360.871094 486.625 C 360.871094 483.59375 358.410156 481.128906 355.382812 481.128906 " fill-opacity="1" fill-rule="nonzero"/><g clip-path="url(#66474b306a)"><path fill="#4d0686" d="M 500.015625 514.1875 L 494.675781 514.1875 C 491.648438 514.1875 489.191406 516.652344 489.191406 519.683594 C 489.191406 522.710938 491.648438 525.175781 494.675781 525.175781 L 500.015625 525.175781 C 503.039062 525.175781 505.5 522.710938 505.5 519.683594 C 505.5 516.652344 503.039062 514.1875 500.015625 514.1875 " fill-opacity="1" fill-rule="nonzero"/></g><path fill="#4d0686" d="M 218.019531 502.617188 L 207.734375 502.617188 C 204.707031 502.617188 202.246094 505.082031 202.246094 508.109375 C 202.246094 511.140625 204.707031 513.605469 207.734375 513.605469 L 218.019531 513.605469 C 221.046875 513.605469 223.507812 511.140625 223.507812 508.109375 C 223.507812 505.082031 221.046875 502.617188 218.019531 502.617188 " fill-opacity="1" fill-rule="nonzero"/></svg>