<svg xmlns="http://www.w3.org/2000/svg" xmlns:xlink="http://www.w3.org/1999/xlink" width="1080" zoomAndPan="magnify" viewBox="0 0 810 530.249967" height="707" preserveAspectRatio="xMidYMid meet" version="1.0"><defs><clipPath id="9df18fb1c6"><path d="M 0.570312 0 L 809.425781 0 L 809.425781 529.5 L 0.570312 529.5 Z M 0.570312 0 " clip-rule="nonzero"/></clipPath><clipPath id="4cfcdffc07"><path d="M 225.453125 4.882812 L 583 4.882812 L 583 524.648438 L 225.453125 524.648438 Z M 225.453125 4.882812 " clip-rule="nonzero"/></clipPath></defs><g clip-path="url(#9df18fb1c6)"><path fill="#ffffff" d="M 0.570312 0 L 809.429688 0 L 809.429688 536.992188 L 0.570312 536.992188 Z M 0.570312 0 " fill-opacity="1" fill-rule="nonzero"/><path fill="#ffffff" d="M 0.570312 0 L 809.429688 0 L 809.429688 529.5 L 0.570312 529.5 Z M 0.570312 0 " fill-opacity="1" fill-rule="nonzero"/><path fill="#ffffff" d="M 0.570312 0 L 809.429688 0 L 809.429688 529.5 L 0.570312 529.5 Z M 0.570312 0 " fill-opacity="1" fill-rule="nonzero"/></g><g clip-path="url(#4cfcdffc07)"><path fill="#4d0686" d="M 363.359375 294.324219 C 363.359375 294.089844 363.242188 293.90625 363.214844 293.671875 C 362.632812 280.980469 358.816406 268.675781 353.765625 253.046875 C 344.175781 223.359375 330.417969 180.757812 330.417969 99.800781 L 330.417969 97.683594 C 333.726562 96.476562 336.128906 93.359375 336.128906 89.628906 L 336.128906 57.835938 C 336.128906 54.109375 333.738281 50.992188 330.417969 49.78125 L 330.417969 13.574219 C 330.402344 8.792969 326.535156 4.917969 321.761719 4.917969 L 267.132812 4.917969 C 262.355469 4.917969 258.488281 8.792969 258.488281 13.574219 L 258.488281 49.78125 C 255.175781 50.992188 252.777344 54.109375 252.777344 57.835938 L 252.777344 89.628906 C 252.777344 93.359375 255.164062 96.476562 258.488281 97.683594 L 258.488281 99.800781 C 258.488281 180.757812 244.730469 223.359375 235.136719 253.046875 C 229.660156 270 225.453125 283.019531 225.453125 296.867188 L 225.453125 500.679688 C 225.453125 507.578125 228.726562 513.75 234.007812 518.113281 C 238.835938 522.117188 245.390625 524.597656 252.515625 524.597656 L 336.375 524.597656 C 343.5 524.597656 350.066406 522.117188 354.882812 518.113281 C 360.152344 513.75 363.4375 507.578125 363.4375 500.679688 L 363.4375 296.867188 C 363.4375 296.867188 363.4375 296.855469 363.4375 296.855469 Z M 270.0625 66.492188 L 318.828125 66.492188 L 318.828125 80.988281 L 270.0625 80.988281 Z M 275.773438 22.226562 L 313.128906 22.226562 L 313.128906 49.199219 L 275.773438 49.199219 Z M 343.890625 504.824219 C 342.035156 506.355469 339.386719 507.316406 336.375 507.316406 L 252.515625 507.316406 C 249.519531 507.316406 246.859375 506.355469 245 504.824219 C 243.601562 503.667969 242.730469 502.1875 242.730469 500.691406 L 242.730469 296.867188 C 242.730469 285.554688 246.558594 273.71875 251.53125 258.308594 C 261.484375 227.503906 275.761719 183.289062 275.761719 99.800781 L 275.761719 98.28125 L 313.117188 98.28125 L 313.117188 99.800781 C 313.117188 183.304688 327.394531 227.503906 337.347656 258.308594 C 340.761719 268.871094 343.527344 277.707031 344.992188 285.902344 L 302.421875 285.902344 C 295.828125 285.902344 289.84375 288.59375 285.507812 292.933594 C 281.175781 297.273438 278.488281 303.261719 278.488281 309.863281 L 278.488281 377.175781 C 278.488281 383.773438 281.175781 389.765625 285.507812 394.101562 C 289.84375 398.441406 295.828125 401.132812 302.421875 401.132812 L 346.160156 401.132812 L 346.160156 500.679688 C 346.160156 502.1875 345.292969 503.652344 343.890625 504.824219 Z M 346.160156 303.210938 L 346.160156 383.839844 L 302.421875 383.839844 C 300.605469 383.839844 298.929688 383.085938 297.722656 381.878906 C 296.515625 380.667969 295.761719 379.007812 295.761719 377.175781 L 295.761719 309.863281 C 295.761719 308.042969 296.515625 306.367188 297.722656 305.15625 C 298.929688 303.949219 300.589844 303.195312 302.421875 303.195312 L 346.160156 303.195312 Z M 542.898438 484.59375 C 532.632812 479.136719 520.78125 475.136719 507.945312 473.003906 L 507.945312 410.589844 C 533.824219 405.1875 553.96875 392.140625 566.859375 373.601562 C 578.65625 356.621094 584.199219 335.171875 582.378906 310.980469 C 582.378906 310.980469 582.378906 310.980469 582.378906 310.964844 C 582.160156 308.015625 581.875 305.054688 581.433594 302.039062 C 581.199219 300.429688 580.902344 298.648438 580.539062 296.699219 C 575.824219 271.46875 567.375 237.832031 561.082031 212.769531 C 558.394531 202.050781 556.085938 192.878906 554.722656 186.980469 C 554.058594 182.863281 550.492188 179.703125 546.195312 179.703125 L 426.761719 179.71875 C 422.828125 179.71875 419.273438 182.421875 418.351562 186.421875 C 417 192.28125 414.636719 201.699219 411.859375 212.757812 C 405.578125 237.804688 397.128906 271.457031 392.40625 296.6875 L 392.351562 297.023438 C 392.339844 297.117188 392.328125 297.195312 392.3125 297.273438 C 392.3125 297.324219 392.300781 297.375 392.289062 297.429688 C 387.042969 326.296875 391.847656 351.941406 404.917969 371.808594 C 417.039062 390.230469 436.09375 403.484375 460.664062 409.578125 L 460.664062 473.785156 C 448.707031 476.214844 437.6875 480.28125 428.109375 485.632812 C 416.234375 492.273438 406.527344 500.914062 399.933594 510.839844 C 398.894531 512.269531 398.273438 514.023438 398.273438 515.933594 C 398.273438 520.710938 402.140625 524.585938 406.914062 524.585938 L 565.988281 524.570312 C 567.609375 524.570312 569.257812 524.117188 570.710938 523.167969 C 574.695312 520.558594 575.8125 515.203125 573.203125 511.203125 C 566.285156 500.585938 555.800781 491.441406 542.898438 484.59375 Z M 428.617188 216.964844 C 430.511719 209.417969 432.210938 202.648438 433.574219 197.011719 L 539.378906 197.011719 C 540.742188 202.636719 542.445312 209.40625 544.339844 216.964844 C 550.257812 240.535156 558.042969 271.625 562.742188 295.582031 C 523.535156 275.328125 496.457031 289.632812 472.34375 302.457031 C 451.707031 313.421875 433.757812 322.839844 410.171875 295.804688 C 414.871094 271.820312 422.6875 240.597656 428.617188 216.964844 Z M 426.617188 507.304688 C 429.628906 504.914062 432.9375 502.71875 436.507812 500.71875 C 446.230469 495.285156 457.820312 491.402344 470.511719 489.609375 C 474.835938 489.011719 477.949219 485.308594 477.976562 481.058594 L 477.976562 402.640625 C 477.976562 398.207031 474.640625 394.542969 470.34375 394.050781 C 447.386719 389.6875 429.902344 378.433594 419.324219 362.363281 C 411.289062 350.136719 407.125 334.988281 407.472656 317.824219 C 434.679688 341.964844 456.144531 330.636719 480.457031 317.722656 C 502.675781 305.910156 527.894531 292.648438 565.390625 317.203125 C 565.859375 335.261719 561.445312 351.152344 552.683594 363.742188 C 541.976562 379.148438 524.742188 389.917969 502.339844 394.117188 L 498.066406 394.816406 C 493.773438 395.441406 490.683594 399.144531 490.671875 403.367188 L 490.671875 480.539062 C 490.671875 485.230469 494.394531 489.039062 499.027344 489.179688 C 512.34375 490.636719 524.570312 494.402344 534.863281 499.859375 C 539.042969 502.070312 542.886719 504.578125 546.335938 507.304688 Z M 426.617188 507.304688 " fill-opacity="1" fill-rule="nonzero"/></g></svg>