<svg xmlns="http://www.w3.org/2000/svg" xmlns:xlink="http://www.w3.org/1999/xlink" width="1080" zoomAndPan="magnify" viewBox="0 0 810 530.249967" height="707" preserveAspectRatio="xMidYMid meet" version="1.0"><defs><clipPath id="4a578d9533"><path d="M 135.792969 5.101562 L 674.28125 5.101562 L 674.28125 525.617188 L 135.792969 525.617188 Z M 135.792969 5.101562 " clip-rule="nonzero"/></clipPath></defs><g clip-path="url(#4a578d9533)"><path fill="#4d0686" d="M 674.269531 14.484375 L 674.214844 13.503906 C 673.675781 8.765625 669.394531 5.363281 664.640625 5.902344 L 336.621094 44.5 C 332.167969 44.847656 328.652344 48.574219 328.652344 53.109375 L 328.652344 264.121094 C 323.792969 265.640625 319.445312 268.414062 315.957031 272.085938 C 310.585938 277.710938 307.246094 285.40625 307.246094 293.800781 L 307.261719 294.148438 C 269.539062 300.472656 235.683594 318.609375 209.6875 344.570312 C 177.015625 377.222656 156.738281 422.265625 156.738281 471.8125 C 156.738281 473.117188 156.765625 474.679688 156.820312 476.480469 C 151.476562 477.273438 146.671875 479.761719 143.007812 483.421875 C 138.566406 487.890625 135.792969 494.0625 135.792969 500.84375 C 135.792969 507.625 138.566406 513.800781 143.035156 518.265625 C 147.503906 522.734375 153.671875 525.503906 160.46875 525.503906 L 665.636719 525.503906 C 670.417969 525.503906 674.292969 521.628906 674.292969 516.855469 L 674.292969 53.109375 Z M 656.96875 44.457031 L 484.734375 44.457031 L 656.980469 24.199219 L 656.980469 44.457031 Z M 328.421875 283.953125 L 328.464844 283.953125 C 330.738281 281.570312 333.875 280.089844 337.320312 280.089844 L 337.402344 280.089844 C 340.847656 280.089844 343.984375 281.570312 346.261719 283.953125 L 346.636719 284.328125 C 348.46875 286.402344 349.695312 289.089844 350.042969 292.105469 C 345.964844 291.820312 341.84375 291.675781 337.6875 291.675781 L 337.039062 291.675781 C 332.878906 291.675781 328.773438 291.820312 324.679688 292.105469 C 325.042969 288.902344 326.40625 286.0625 328.421875 283.953125 Z M 221.949219 356.816406 C 251.488281 327.296875 292.238281 308.976562 337.039062 308.976562 L 337.6875 308.976562 C 382.488281 308.976562 423.238281 327.296875 452.773438 356.816406 C 482.308594 386.332031 500.644531 427.054688 500.644531 471.824219 L 500.605469 476.199219 L 174.105469 476.199219 L 174.066406 471.824219 C 174.066406 427.039062 192.402344 386.332031 221.949219 356.816406 Z M 155.273438 506.039062 C 153.941406 504.707031 153.105469 502.863281 153.105469 500.84375 C 153.105469 498.828125 153.941406 496.996094 155.273438 495.652344 C 156.605469 494.320312 158.449219 493.484375 160.46875 493.484375 L 514.257812 493.484375 C 516.273438 493.484375 518.105469 494.320312 519.453125 495.652344 C 520.785156 496.984375 521.621094 498.828125 521.621094 500.84375 C 521.621094 502.863281 520.785156 504.691406 519.453125 506.039062 C 518.121094 507.371094 516.273438 508.203125 514.257812 508.203125 L 160.457031 508.203125 C 158.449219 508.203125 156.605469 507.371094 155.273438 506.039062 Z M 656.96875 508.203125 L 537.789062 508.203125 C 538.515625 505.875 538.917969 503.402344 538.917969 500.84375 C 538.917969 494.0625 536.144531 487.890625 531.675781 483.421875 C 528.015625 479.761719 523.207031 477.273438 517.863281 476.480469 C 517.917969 474.664062 517.945312 473.089844 517.945312 471.8125 C 517.945312 455.25 515.667969 439.203125 511.441406 423.945312 L 598.246094 423.945312 C 603.027344 423.945312 606.902344 420.070312 606.902344 415.296875 C 606.902344 410.519531 603.027344 406.644531 598.246094 406.644531 L 505.679688 406.644531 C 502.152344 397.617188 497.898438 388.941406 493.027344 380.679688 L 598.246094 380.679688 C 603.027344 380.679688 606.902344 376.804688 606.902344 372.03125 C 606.902344 367.253906 603.027344 363.378906 598.246094 363.378906 L 481.40625 363.378906 C 476.375 356.734375 470.894531 350.4375 464.996094 344.558594 C 462.546875 342.109375 460.003906 339.730469 457.417969 337.414062 L 598.246094 337.414062 C 603.027344 337.414062 606.902344 333.539062 606.902344 328.765625 C 606.902344 323.988281 603.027344 320.113281 598.246094 320.113281 L 434.652344 320.113281 C 414.582031 307.226562 391.816406 298.210938 367.421875 294.121094 L 367.4375 293.773438 C 367.4375 285.632812 364.3125 278.167969 359.238281 272.597656 L 358.742188 272.03125 C 355.226562 268.359375 350.839844 265.589844 345.953125 264.066406 L 345.953125 61.757812 L 656.957031 61.757812 L 656.957031 508.203125 Z M 444.722656 188.890625 C 448.101562 192.269531 453.582031 192.269531 456.960938 188.890625 L 468.496094 177.363281 L 494.425781 203.273438 L 440.914062 256.75 C 437.535156 260.125 437.535156 265.601562 440.914062 268.980469 C 444.292969 272.355469 449.773438 272.355469 453.152344 268.980469 L 506.664062 215.503906 L 560.175781 268.980469 C 563.554688 272.355469 569.035156 272.355469 572.414062 268.980469 C 575.792969 265.601562 575.792969 260.125 572.414062 256.75 L 518.902344 203.273438 L 545.648438 176.542969 C 551.800781 180.039062 558.921875 181.480469 566.179688 180.914062 C 575.886719 180.148438 585.835938 175.734375 593.710938 167.863281 C 601.585938 159.996094 605.988281 150.066406 606.769531 140.367188 C 607.574219 130.207031 604.414062 120.253906 597.101562 112.949219 L 596.535156 112.398438 C 589.28125 105.453125 579.5625 102.46875 569.625 103.261719 C 559.917969 104.027344 549.972656 108.441406 542.097656 116.3125 C 534.21875 124.183594 529.816406 134.109375 529.039062 143.824219 C 528.457031 151.0625 529.914062 158.179688 533.425781 164.324219 L 506.664062 191.070312 L 480.734375 165.160156 L 492.273438 153.628906 C 495.652344 150.253906 495.652344 144.777344 492.273438 141.402344 L 446.125 95.285156 C 442.746094 91.90625 437.265625 91.90625 433.886719 95.285156 C 430.507812 98.660156 430.507812 104.136719 433.886719 107.511719 L 473.921875 147.523438 L 468.496094 152.945312 L 428.460938 112.933594 C 425.082031 109.558594 419.601562 109.558594 416.222656 112.933594 C 412.84375 116.3125 412.84375 121.785156 416.222656 125.164062 L 456.261719 165.171875 L 450.835938 170.59375 L 410.800781 130.585938 C 407.417969 127.207031 401.941406 127.207031 398.5625 130.585938 C 395.183594 133.960938 395.183594 139.4375 398.5625 142.8125 Z M 546.296875 145.140625 C 546.753906 139.382812 549.472656 133.382812 554.347656 128.515625 C 559.21875 123.644531 565.222656 120.925781 570.984375 120.46875 C 576.101562 120.066406 580.988281 121.464844 584.527344 124.761719 L 584.890625 125.109375 C 588.433594 128.660156 589.953125 133.707031 589.535156 138.992188 C 589.078125 144.75 586.359375 150.75 581.484375 155.621094 C 576.613281 160.492188 570.609375 163.210938 564.847656 163.667969 C 559.652344 164.070312 554.667969 162.589844 551.101562 159.171875 C 551.046875 159.121094 551.007812 159.066406 550.953125 159.011719 C 550.898438 158.957031 550.847656 158.917969 550.792969 158.863281 C 547.359375 155.324219 545.878906 150.347656 546.296875 145.140625 Z M 546.296875 145.140625 " fill-opacity="1" fill-rule="nonzero"/></g></svg>