<svg xmlns="http://www.w3.org/2000/svg" xmlns:xlink="http://www.w3.org/1999/xlink" width="1080" zoomAndPan="magnify" viewBox="0 0 810 809.999993" height="1080" preserveAspectRatio="xMidYMid meet" version="1.0"><defs><clipPath id="c1da81e8e3"><path d="M 226 441 L 405 441 L 405 679.855469 L 226 679.855469 Z M 226 441 " clip-rule="nonzero"/></clipPath><clipPath id="d349ebdd18"><path d="M 404 441 L 591 441 L 591 679.855469 L 404 679.855469 Z M 404 441 " clip-rule="nonzero"/></clipPath><clipPath id="b2adb09197"><path d="M 240 130.105469 L 570 130.105469 L 570 561 L 240 561 Z M 240 130.105469 " clip-rule="nonzero"/></clipPath></defs><rect x="-81" width="972" fill="#ffffff" y="-80.999999" height="971.999992" fill-opacity="1"/><rect x="-81" width="972" fill="#ffffff" y="-80.999999" height="971.999992" fill-opacity="1"/><rect x="-81" width="972" fill="#ffffff" y="-80.999999" height="971.999992" fill-opacity="1"/><g clip-path="url(#c1da81e8e3)"><path fill="#7cb22f" d="M 301.40625 441.679688 L 226.269531 613.210938 L 404.480469 679.839844 L 404.902344 461.527344 L 301.40625 441.679688 " fill-opacity="1" fill-rule="nonzero"/></g><path fill="#6ea52c" d="M 203.589844 457.273438 L 4.148438 664.625 C 0.09375 668.835938 4.207031 675.703125 9.835938 674.121094 L 226.269531 613.210938 L 301.410156 441.679688 L 203.589844 457.273438 " fill-opacity="1" fill-rule="nonzero"/><path fill="#7cb22f" d="M 805.847656 656.703125 L 609.046875 457.273438 L 505.558594 441.679688 L 590.617188 613.214844 L 800.359375 666.292969 C 805.984375 667.714844 809.929688 660.835938 805.847656 656.703125 " fill-opacity="1" fill-rule="nonzero"/><g clip-path="url(#d349ebdd18)"><path fill="#6ea52c" d="M 404.898438 461.527344 L 404.476562 679.839844 L 590.617188 613.214844 L 505.558594 441.679688 L 404.898438 461.527344 " fill-opacity="1" fill-rule="nonzero"/></g><path fill="#dddcdb" d="M 142.976562 520.289062 L 156.441406 506.292969 L 282.460938 484.933594 L 277.859375 495.433594 L 142.976562 520.289062 " fill-opacity="1" fill-rule="nonzero"/><path fill="#dddcdb" d="M 406.820312 539.125 L 402.136719 528.691406 L 522.011719 474.871094 L 527.09375 485.121094 L 406.820312 539.125 " fill-opacity="1" fill-rule="nonzero"/><path fill="#dddcdb" d="M 254.464844 548.839844 L 73.550781 592.46875 L 58.671875 607.9375 L 177.222656 577.796875 L 135.949219 638.628906 L 153.085938 633.738281 L 193.921875 573.550781 L 249.875 559.324219 L 254.464844 548.839844 " fill-opacity="1" fill-rule="nonzero"/><path fill="#f2f2f2" d="M 729.632812 579.46875 L 627 559.035156 L 583.875 494.023438 L 656.539062 505.417969 L 644.160156 492.859375 L 522.011719 474.867188 L 527.09375 485.121094 L 568.554688 491.621094 L 611.191406 555.886719 L 556.824219 545.0625 L 562.730469 556.976562 L 743.949219 593.980469 L 729.632812 579.46875 " fill-opacity="1" fill-rule="nonzero"/><path fill="#dddcdb" d="M 562.730469 556.976562 L 556.820312 545.0625 L 404.621094 606.539062 L 404.621094 618.851562 L 478.21875 590.046875 L 496.683594 646.660156 L 507.558594 643.117188 L 488.886719 585.871094 L 562.730469 556.976562 " fill-opacity="1" fill-rule="nonzero"/><path fill="#f2f2f2" d="M 322.183594 511.023438 L 402.578125 539.300781 L 406.375 528.515625 L 282.460938 484.933594 L 277.859375 495.433594 L 311.398438 507.226562 L 291.855469 563.207031 L 254.46875 548.839844 L 249.875 559.324219 L 404.621094 618.851562 L 404.621094 606.539062 L 302.535156 567.308594 L 322.183594 511.023438 " fill-opacity="1" fill-rule="nonzero"/><g clip-path="url(#b2adb09197)"><path fill="#e33824" d="M 569.109375 294.296875 C 569.109375 392.726562 427.542969 560.761719 404.894531 560.761719 C 385.472656 560.761719 240.695312 402.605469 240.695312 294.296875 C 240.695312 203.613281 314.214844 130.097656 404.902344 130.097656 C 495.589844 130.097656 569.109375 203.613281 569.109375 294.296875 " fill-opacity="1" fill-rule="nonzero"/></g><path fill="#f2f2f2" d="M 505.722656 294.300781 C 505.722656 349.980469 460.582031 395.117188 404.898438 395.117188 C 349.21875 395.117188 304.074219 349.980469 304.074219 294.300781 C 304.074219 238.617188 349.21875 193.480469 404.898438 193.480469 C 460.582031 193.480469 505.722656 238.617188 505.722656 294.300781 " fill-opacity="1" fill-rule="nonzero"/></svg>